<?xml version="1.0" encoding="UTF-8"?>
<svg fill="#ffffff" width="700pt" height="700pt" version="1.1" viewBox="0 0 700 700" xmlns="http://www.w3.org/2000/svg">
 <g>
  <path d="m614.27 62.168-195.7 391.45-326.23-212.02 521.93-179.43m47.57-62.168c-2.2148 0-4.4492 0.34375-6.6406 1.1172l-623.7 214.41c-7.418 2.5586-12.727 9.1133-13.691 16.875-0.94531 7.7617 2.6016 15.434 9.1797 19.691l382.23 248.45c4.6875 3.0508 10.102 4.6016 15.562 4.6016 2.5156 0 5.0312-0.32422 7.5234-0.98828 7.8477-2.1484 14.402-7.5234 18.059-14.789l229.84-459.7c3.6992-7.4609 2.5586-16.422-2.9453-22.68-3.9336-4.4922-9.6094-6.9844-15.414-6.9844z"/>
  <path d="m282.21 401.01c-37.125-18.359-23.859-38.562-23.859-38.562s152.88-131.95 205.01-181.54c1.8047-1.7188 2.1289-4.4922 0.73047-6.5547-1.3555-2.1055-5.8047-2.9023-8.0625-1.8906l-334.46 128.48v238.48c0 8.0625 6.4688 15.391 13.777 18.723 7.3516 3.332 16.832 2.0859 22.914-3.2031l155.72-135.25c-10.379-6.7734-20.59-13.156-31.77-18.684z"/>
 </g>
</svg>
